<svg version="1.0" xmlns="http://www.w3.org/2000/svg"
     width="300.000000pt" height="109.000000pt" viewBox="0 0 300.000000 109.000000"
     preserveAspectRatio="xMidYMid meet">
    <g transform="translate(0.000000,109.000000) scale(0.100000,-0.100000)"
       fill="#000000" stroke="none">
        <path fill="#4f4e4e" d="M2277 662 c-22 -25 -21 -48 3 -72 24 -24 53 -26 74 -4 19 18 21 65 4
82 -18 18 -63 14 -81 -6z m60 -27 c1 -5 -2 -17 -7 -25 -8 -13 -11 -13 -26 2
-9 9 -13 21 -9 28 8 13 37 10 42 -5z"/>
        <path fill="#4f4e4e" d="M1520 640 c-42 -42 -11 -98 50 -90 41 5 53 70 18 94 -30 21 -44 20
-68 -4z m55 -46 c-24 -18 -45 -18 -45 -1 0 25 21 37 43 25 20 -10 20 -11 2
-24z"/>
        <path fill="#4f4e4e" d="M2192 545 c-78 -13 -78 -13 -132 -101 -33 -55 -32 -84 4 -84 15 0 32
17 58 60 27 43 43 60 59 60 13 0 19 -5 17 -12 -3 -7 -15 -44 -28 -83 -28 -85
-75 -155 -104 -155 -12 1 -40 5 -63 9 -53 10 -85 -7 -67 -36 8 -12 34 -22 85
-31 41 -6 79 -10 85 -8 6 2 31 31 56 64 l45 60 42 -54 c28 -35 44 -69 50 -101
5 -26 9 -48 8 -49 -13 -6 -590 -36 -639 -32 -75 4 -101 21 -125 76 -27 64 23
142 91 142 82 0 135 -82 101 -154 -21 -44 -11 -61 16 -27 27 33 33 67 20 111
-20 67 -71 97 -151 90 -122 -10 -160 -176 -56 -242 29 -18 44 -19 241 -14 598
17 709 17 815 3 95 -13 136 -10 117 9 -12 12 -97 23 -234 30 -73 4 -133 10
-133 13 -1 47 -24 129 -43 150 -51 57 -51 56 -31 127 l17 65 25 -26 c26 -29
24 -28 154 -9 39 6 55 28 37 51 -10 11 -27 12 -79 7 l-66 -6 -39 51 c-22 28
-42 51 -46 51 -4 0 -13 2 -21 4 -7 2 -46 -2 -86 -9z m113 -43 c0 -4 18 -24 40
-45 21 -20 34 -37 28 -37 -6 0 -16 7 -23 15 -33 39 -64 7 -90 -93 -14 -54 -18
-61 -29 -48 -9 10 -22 14 -37 10 l-23 -6 21 64 c26 82 33 128 19 128 -6 0 -11
6 -11 14 0 10 14 16 43 18 40 3 62 -4 62 -20z m-145 2 c0 -8 -19 -13 -24 -6
-3 5 1 9 9 9 8 0 15 -2 15 -3z m-59 -57 c-10 -9 -11 -8 -5 6 3 10 9 15 12 12
3 -3 0 -11 -7 -18z m59 -180 c0 -2 -10 -12 -22 -23 l-23 -19 19 23 c18 21 26
27 26 19z m154 -63 c3 -8 2 -12 -4 -9 -6 3 -10 10 -10 16 0 14 7 11 14 -7z"/>
        <path fill="#4f4e4e" d="M1373 464 c-54 -48 -101 -92 -105 -98 -12 -20 8 -38 73 -65 l64 -27
-2 -69 c-1 -73 7 -95 38 -95 25 0 31 28 27 124 -3 85 -2 84 -73 112 l-40 16
55 49 c30 27 57 49 61 49 3 0 15 -20 26 -44 l21 -43 82 -13 c86 -13 105 -8 98
26 -3 17 -23 25 -101 38 -33 6 -40 13 -67 66 -17 33 -37 60 -45 60 -8 0 -59
-39 -112 -86z m126 32 c8 -9 8 -16 2 -20 -5 -4 -13 -1 -16 5 -4 5 -13 8 -21 5
-8 -3 -14 -1 -14 3 0 9 15 18 31 20 4 1 12 -5 18 -13z m-148 -102 c-11 -14
-17 -32 -14 -40 3 -8 -1 -14 -10 -14 -29 0 -27 18 4 49 37 38 48 40 20 5z
m194 16 c3 -5 1 -10 -4 -10 -6 0 -11 5 -11 10 0 6 2 10 4 10 3 0 8 -4 11 -10z"/>
        <path fill="#4f4e4e" d="M101 396 c-27 -15 -50 -52 -51 -81 0 -25 80 -205 92 -205 15 0 91
173 91 208 2 62 -78 109 -132 78z m81 -43 c35 -31 10 -93 -38 -93 -48 0 -70
55 -37 92 20 22 51 23 75 1z m-19 -151 c-9 -15 -18 -29 -19 -30 -1 -2 -10 11
-19 29 l-17 32 31 -6 c23 -5 30 -3 25 5 -4 7 -3 8 4 4 9 -5 7 -15 -5 -34z"/>
        <path fill="#4f4e4e" d="M2855 401 c-34 -15 -59 -50 -58 -84 1 -35 77 -207 91 -207 13 0 92
176 92 206 0 36 -16 61 -50 79 -32 17 -45 18 -75 6z m61 -39 c43 -29 30 -94
-20 -100 -32 -4 -66 22 -66 50 0 38 55 71 86 50z m-19 -142 c21 0 22 -3 13
-20 -15 -28 -27 -25 -46 13 -10 20 -11 27 -3 20 7 -7 24 -13 36 -13z"/>
        <path fill="#4f4e4e" d="M1172 273 c-45 -22 -77 -87 -68 -135 9 -48 29 -73 51 -64 16 6 16 8
3 24 -24 27 -30 69 -14 106 30 72 111 89 165 35 26 -26 31 -38 31 -81 0 -41
-5 -54 -29 -79 l-29 -29 -132 0 c-127 0 -132 1 -156 25 l-25 26 -30 -26 c-39
-32 -79 -32 -117 0 l-29 25 -28 -26 -28 -25 -68 105 -68 106 -63 -6 c-68 -7
-92 -21 -82 -47 5 -13 19 -17 59 -17 46 0 55 -3 70 -26 21 -32 16 -36 -61 -62
-44 -14 -65 -17 -73 -9 -7 7 -18 2 -36 -18 -24 -25 -31 -27 -72 -21 -33 4 -44
3 -41 -7 7 -18 61 -20 103 -3 33 14 39 14 58 1 28 -19 80 -19 117 0 27 14 33
14 60 0 37 -19 71 -19 116 0 32 13 38 13 57 0 28 -19 80 -19 117 0 27 14 33
14 60 0 39 -20 256 -21 304 -1 67 28 99 105 72 170 -28 68 -120 96 -194 59z
m-592 -55 c0 -11 -22 -10 -39 1 -10 7 -7 9 12 8 15 -1 27 -5 27 -9z m80 -106
c0 -7 5 -10 12 -6 6 4 8 3 4 -4 -3 -6 -2 -13 4 -17 5 -3 10 -11 10 -17 0 -6
-7 -5 -17 3 -11 10 -14 10 -9 2 11 -19 -6 -15 -32 6 -21 18 -22 51 -1 51 6 0
5 10 -1 23 -10 20 -9 20 9 -3 11 -14 21 -31 21 -38z m-60 -24 c0 -6 -3 -8 -6
-5 -4 3 -16 0 -28 -8 -22 -16 -46 -20 -46 -7 0 4 10 8 21 9 12 1 27 7 32 12
14 14 27 14 27 -1z"/>
        <path fill="#4f4e4e" d="M733 219 c-44 -16 -38 -90 7 -104 32 -10 70 20 70 54 0 42 -36 65
-77 50z m47 -47 c0 -25 -7 -31 -30 -25 -11 3 -18 13 -17 24 2 26 47 27 47 1z"/>
        <path fill="#4f4e4e" d="M117 67 c-8 -21 8 -39 29 -35 27 5 25 42 -2 46 -12 2 -24 -3 -27 -11z"/>
        <path fill="#4f4e4e" d="M2864 65 c-8 -20 4 -35 26 -35 23 0 32 13 24 34 -8 20 -43 21 -50 1z"/>
    </g>
</svg>
