<svg width="450" height="300" xmlns="http://www.w3.org/2000/svg" preserveAspectRatio="xMidYMid meet" version="1.0">

    <g>
        <title>Layer 1</title>
        <g id="svg_1" fill="#ffffff" transform="translate(0.000000,846.000000) scale(0.100000,-0.100000)">
            <path fill="#666666" id="svg_2"
                  d="m3660,8064c-17,-43 -12,-50 41,-63l52,-14l-6,-57c-4,-51 -3,-59 14,-63c10,-3 22,0 25,5c4,6 13,1 21,-13c14,-23 14,-23 9,10c-3,18 -6,44 -6,58c0,15 -4,22 -11,17c-6,-3 -8,-17 -5,-30c4,-13 4,-24 2,-24c-2,0 -11,-3 -19,-6c-12,-4 -14,6 -10,63c6,100 11,117 28,103c8,-6 16,-7 19,-2c7,12 -19,23 -37,16c-7,-2 -32,2 -56,11c-54,19 -50,20 -61,-11zm46,-23c0,-11 -5,-17 -13,-14c-17,6 -17,20 0,26c6,3 12,6 12,6c1,1 1,-7 1,-18zm45,-10c7,11 9,11 9,-3c0,-20 -8,-22 -29,-9c-9,6 -11,15 -6,27c8,17 9,17 13,-5c3,-19 6,-21 13,-10z"/>
            <path fill="#666666" id="svg_3"
                  d="m3818,8003l-3,-38l223,-73c208,-68 222,-74 222,-97c0,-28 20,-75 32,-75c11,0 10,17 -2,25c-5,3 -10,20 -10,37c0,23 4,29 16,24c9,-3 19,-6 24,-6c14,0 17,-48 4,-71c-15,-28 -18,-49 -6,-49c5,0 9,6 9,13c1,6 6,26 12,42c6,17 13,55 16,87c6,56 6,56 34,48c16,-4 39,-13 52,-20c24,-13 24,-13 5,8c-10,12 -35,24 -55,27c-20,3 -65,11 -101,17c-50,8 -379,105 -455,134c-10,4 -15,-5 -17,-33zm52,-19c0,-9 -5,-14 -12,-12c-18,6 -21,28 -4,28c9,0 16,-7 16,-16zm30,7c0,-4 11,-6 25,-3c14,2 25,0 25,-4c0,-13 -20,-41 -20,-28c0,6 -10,10 -21,10c-13,-1 -23,6 -24,17c-2,9 1,17 6,17c5,0 9,-4 9,-9zm96,-34c36,-15 45,-42 12,-32c-13,4 -31,9 -40,11c-10,3 -15,11 -11,20c6,17 4,17 39,1zm60,-23c-5,-14 -4,-15 8,-5c17,15 46,4 39,-15c-3,-8 0,-14 6,-14c6,0 11,5 11,10c0,16 20,12 27,-5c9,-25 -2,-27 -56,-9c-37,12 -51,21 -51,35c0,11 5,19 11,19c6,0 8,-7 5,-16zm207,-45c40,-10 47,-15 47,-35c0,-30 17,-31 23,-1c3,16 5,13 6,-10c1,-31 -8,-41 -23,-26c-3,4 -12,8 -19,9c-31,4 -127,38 -127,45c0,22 14,39 29,35c9,-3 37,-10 64,-17z"/>
            <path fill="#666666" id="svg_4"
                  d="m4190,7880c0,-5 5,-10 10,-10c6,0 10,5 10,10c0,6 -4,10 -10,10c-5,0 -10,-4 -10,-10z"/>
            <path fill="#666666" id="svg_5" d="m3785,8021c-6,-11 9,-23 19,-14c9,9 7,23 -3,23c-6,0 -12,-4 -16,-9z"/>
            <path fill="#666666" id="svg_6"
                  d="m641,7956c-19,-24 -49,-96 -41,-101c4,-3 11,-121 15,-262c4,-142 8,-291 10,-331c2,-55 0,-75 -11,-79c-10,-4 -11,-9 -1,-24c10,-16 9,-21 -3,-29c-13,-9 -13,-12 1,-20c14,-8 16,-30 15,-141c0,-72 2,-133 7,-136c4,-2 3,-12 -3,-22c-5,-10 -7,-21 -3,-25c9,-8 7,-342 -2,-356c-4,-7 -3,-16 3,-22c6,-6 8,-16 6,-23c-4,-9 10,-11 58,-6c78,7 173,6 213,-3l30,-7l-31,14c-17,8 -49,26 -72,41c-44,27 -92,28 -92,1c0,-14 -22,-25 -50,-25c-16,0 -17,10 -16,99c1,55 -1,98 -5,96c-3,-3 -3,14 1,38c9,53 6,148 -5,166c-6,10 -4,12 5,6c9,-5 10,-2 5,14c-12,39 -4,271 10,271c17,0 26,-216 12,-259c-16,-46 -5,-110 24,-134c19,-15 21,-28 22,-132c0,-94 3,-115 15,-115c13,0 14,42 11,307c-4,302 -4,308 16,308c11,0 21,8 23,18c2,9 -1,17 -7,17c-6,0 -11,-8 -11,-17c0,-15 -2,-15 -9,-4c-10,15 8,43 22,34c17,-10 5,13 -22,42l-29,30l-9,285c-4,157 -8,309 -8,338c0,28 -3,52 -7,52c-5,0 -8,-35 -9,-77c-1,-43 -2,-95 -3,-115c-2,-20 0,-35 4,-33c3,2 7,-6 7,-18c2,-17 0,-18 -7,-7c-7,11 -9,10 -7,-7c0,-12 4,-20 8,-17c4,2 7,-35 7,-83c0,-49 3,-97 7,-108c4,-13 4,-16 -2,-8c-6,9 -9,1 -9,-22c0,-19 3,-30 6,-24c4,6 6,-23 6,-63c-1,-40 2,-82 7,-93c8,-19 7,-19 -11,1c-15,18 -18,40 -20,134c-1,62 -5,116 -8,121c-3,5 -1,9 5,9c7,0 7,8 1,26c-13,32 -13,43 0,24c6,-9 10,-10 10,-3c0,6 -4,15 -10,18c-5,3 -10,15 -10,26c0,14 4,18 13,13c9,-6 9,-5 0,7c-13,17 -26,259 -13,274c9,11 13,43 11,91c-1,27 -5,32 -31,36c-17,3 -34,0 -39,-6zm34,-26c-4,-11 -2,-20 4,-20c6,0 11,8 12,18c0,11 2,12 6,4c3,-7 0,-19 -7,-26c-7,-10 -8,-16 0,-21c5,-3 10,-16 10,-28c0,-17 -2,-19 -9,-8c-6,9 -24,14 -45,13c-20,-1 -36,1 -36,4c0,12 38,53 44,47c3,-3 6,3 6,15c0,12 5,22 11,22c6,0 8,-9 4,-20zm7,-266c16,-408 16,-474 3,-474c-13,0 -31,232 -20,250c4,6 -1,10 -9,10c-9,0 -16,5 -16,10c0,6 6,10 13,10c9,0 11,24 6,102c-12,182 -10,280 4,276c9,-3 14,-54 19,-184zm56,-512c9,-14 17,-30 18,-36c1,-6 5,-19 9,-29c4,-10 4,-17 -1,-16c-26,4 -36,-2 -29,-18c13,-32 14,-207 2,-222c-9,-12 -9,-13 1,-7c16,9 15,5 -2,-30c-17,-32 -11,-51 10,-33c11,9 14,7 14,-14c0,-31 -16,-43 -35,-27c-23,19 -15,148 7,134c6,-4 6,0 0,12c-5,11 -10,66 -11,123c-1,57 -4,108 -7,112c-3,5 -22,9 -43,9c-36,0 -37,1 -38,35l-1,36l45,-3c35,-1 49,-7 61,-26zm42,-32c0,-5 -5,-10 -11,-10c-5,0 -7,5 -4,10c3,6 8,10 11,10c2,0 4,-4 4,-10zm10,-694c0,-2 -7,-9 -15,-16c-12,-10 -15,-10 -15,4c0,9 7,16 15,16c8,0 15,-2 15,-4z"/>
            <path fill="#666666" id="svg_7" d="m711,7144c0,-11 3,-14 6,-6c3,7 2,16 -1,19c-3,4 -6,-2 -5,-13z"/>
            <path fill="#666666" id="svg_8" d="m731,7094c0,-11 3,-14 6,-6c3,7 2,16 -1,19c-3,4 -6,-2 -5,-13z"/>
            <path fill="#666666" id="svg_9" d="m4382,7838c-18,-18 -14,-27 8,-21c21,6 26,18 12,27c-5,3 -14,0 -20,-6z"/>
            <path fill="#666666" id="svg_10"
                  d="m4475,7830c3,-5 8,-10 11,-10c2,0 4,5 4,10c0,6 -5,10 -11,10c-5,0 -7,-4 -4,-10z"/>
            <path fill="#666666" id="svg_11"
                  d="m4437,7819c-22,-13 -13,-29 12,-22c19,5 19,5 12,-74c-1,-9 -20,-13 -60,-13l-58,0l-7,-52c-3,-29 -6,-108 -6,-174c0,-149 -6,-184 -31,-184c-13,0 -19,-7 -19,-23c0,-13 -8,-31 -18,-40c-21,-19 -37,-23 -27,-7c4,6 1,9 -6,8c-7,-2 -13,2 -14,9c0,15 -15,30 -15,15c0,-24 -23,-11 -81,45c-32,31 -59,51 -59,45c0,-16 131,-132 157,-138c13,-4 30,-1 38,6c8,6 20,8 26,4c9,-5 10,-2 6,9c-4,12 -1,17 11,18c10,0 12,3 5,6c-24,9 -13,30 20,39c48,15 102,12 103,-6c1,-8 2,-21 3,-27c0,-7 5,-13 10,-13c6,0 6,12 0,32c-11,39 -12,231 -1,242c4,4 7,44 8,88c0,63 4,83 17,93c20,15 23,83 5,108c-10,12 -17,14 -31,6zm-21,-281c-3,-90 -6,-175 -6,-190c0,-16 -4,-28 -10,-28c-5,0 -10,14 -10,30c0,26 -4,30 -27,30l-28,1l30,14c17,7 26,14 20,14c-6,1 -9,48 -6,128c2,80 6,121 11,108c8,-19 9,-19 9,3c1,12 -4,22 -9,22c-13,0 11,29 23,30c5,0 6,-73 3,-162zm-49,60c-2,-18 -4,-4 -4,32c0,36 2,50 4,33c2,-18 2,-48 0,-65zm3,-77c0,-6 -4,-13 -10,-16c-5,-3 -10,1 -10,9c0,9 5,16 10,16c6,0 10,-4 10,-9zm7,-188c-3,-10 -5,-4 -5,12c0,17 2,24 5,18c2,-7 2,-21 0,-30z"/>
            <path fill="#666666" id="svg_12" d="m4392,7590c0,-14 2,-19 5,-12c2,6 2,18 0,25c-3,6 -5,1 -5,-13z"/>
            <path fill="#666666" id="svg_13"
                  d="m4310,7655c-2,-11 -4,-32 -5,-46c-1,-15 -5,-34 -8,-43c-4,-9 -2,-16 3,-16c11,0 24,80 17,106c-4,18 -5,18 -7,-1z"/>
            <path fill="#666666" id="svg_14" d="m4273,7600c0,-25 2,-35 4,-22c2,12 2,32 0,45c-2,12 -4,2 -4,-23z"/>
            <path fill="#666666" id="svg_15"
                  d="m3736,7615c4,-8 8,-15 10,-15c2,0 4,7 4,15c0,8 -4,15 -10,15c-5,0 -7,-7 -4,-15z"/>
            <path fill="#666666" id="svg_16"
                  d="m3731,7505c-1,-38 -4,-99 -6,-135c-11,-179 -11,-174 8,-178c15,-3 17,2 14,41c-2,24 -8,50 -12,57c-5,7 -4,11 1,7c8,-5 9,116 1,233c-2,32 -4,24 -6,-25zm9,-281c0,-8 -5,-12 -10,-9c-6,4 -8,11 -5,16c9,14 15,11 15,-7z"/>
            <path fill="#666666" id="svg_17"
                  d="m4260,7510c0,-16 2,-30 4,-30c2,0 6,14 8,30c3,17 1,30 -4,30c-4,0 -8,-13 -8,-30z"/>
            <path fill="#666666" id="svg_18"
                  d="m4291,7523c3,-22 -11,-73 -20,-73c-13,0 -31,-83 -25,-116c5,-28 2,-38 -12,-49c-11,-8 -14,-14 -9,-14c35,0 71,83 44,100c-12,7 -12,10 0,21c10,10 12,10 7,1c-4,-7 -2,-13 5,-13c6,0 9,8 6,20c-3,11 -2,20 2,20c4,0 7,10 8,23c0,12 3,39 8,60c5,26 4,37 -5,37c-6,0 -10,-8 -9,-17z"/>
            <path fill="#666666" id="svg_19"
                  d="m4454,7319c-10,-17 13,-36 27,-22c12,12 4,33 -11,33c-5,0 -12,-5 -16,-11z"/>
            <path fill="#666666" id="svg_20"
                  d="m4369,7253l-47,-4l-8,-227c-5,-125 -9,-284 -9,-354c0,-122 -1,-127 -22,-133c-12,-3 -29,-2 -39,2c-11,4 -15,2 -11,-4c9,-15 -102,-44 -144,-39c-52,7 -70,16 -80,42c-5,14 -17,24 -28,24c-17,0 -18,-3 -8,-29c7,-20 15,-27 29,-23c13,3 18,-1 18,-17c0,-13 4,-19 10,-16c17,10 50,-5 50,-23c0,-12 -3,-13 -12,-4c-18,18 -38,15 -38,-6c0,-15 -20,-23 -110,-43c-82,-19 -110,-23 -110,-13c0,14 5,16 118,40c45,9 82,20 82,24c0,6 -111,-16 -270,-53c-36,-9 -91,-18 -122,-21c-31,-3 -73,-12 -93,-20c-20,-9 -71,-22 -113,-30c-85,-16 -498,-104 -523,-112c-11,-3 -16,-16 -16,-41l1,-36l-89,-19c-50,-10 -98,-21 -107,-24c-15,-4 -18,1 -18,29l0,35l78,17c97,21 146,38 82,28c-41,-6 -148,-8 -160,-2c-3,1 11,5 30,9l35,8l-42,-1c-34,-1 -43,-5 -43,-19c0,-12 7,-18 22,-18c41,0 11,-9 -122,-39c-764,-166 -787,-171 -995,-192c-149,-15 -562,-15 -670,-1c-44,6 -102,14 -130,17l-50,5l45,-16c69,-24 288,-41 481,-39c168,2 331,11 375,20c26,6 234,35 247,35c5,0 6,-7 3,-15c-3,-9 1,-18 9,-21c23,-9 18,-22 -12,-28c-78,-16 -229,-37 -363,-51l-125,-14l120,4c66,2 109,1 95,-2c-14,-3 -32,-11 -40,-18c-12,-10 -49,-12 -165,-9c-144,5 -214,14 -105,14c29,0 51,2 49,4c-2,3 -87,7 -189,10c-102,3 -212,10 -245,15c-113,19 -142,22 -115,12c22,-8 22,-9 5,-10c-12,-1 -25,3 -30,8c-8,7 -48,19 -125,35c-10,2 -15,15 -15,37l0,34l50,-2c43,-3 47,-1 25,8c-25,10 -182,49 -200,49c-6,0 -10,-18 -10,-40c0,-22 -4,-40 -10,-40c-5,0 -10,11 -10,25c0,14 -5,25 -12,25c-6,0 -3,9 7,20c10,11 14,20 9,20c-20,0 -341,69 -364,78c-14,6 -32,17 -39,26c-12,14 -8,18 30,35c54,24 112,38 89,22c-25,-18 13,-14 78,8c31,11 119,29 195,42c112,18 137,25 136,38c-3,37 0,39 43,29c23,-5 48,-14 55,-20c7,-6 13,-7 13,-2c-1,20 -18,33 -55,43c-22,5 -50,13 -63,17c-22,6 -22,5 -16,-33l6,-40l-83,-12c-124,-17 -259,-44 -259,-50c0,-3 -30,-6 -67,-6c-83,-1 -133,-23 -133,-60c0,-18 7,-26 25,-31c21,-5 25,-12 25,-40c0,-28 5,-36 26,-45c36,-13 27,-19 -16,-10c-35,8 -37,11 -25,44c11,28 -14,20 -27,-9c-11,-23 -10,-28 7,-41c11,-7 29,-16 40,-18c11,-3 169,-41 350,-84c403,-98 407,-98 680,-111c121,-6 235,-15 252,-21c18,-6 37,-8 42,-4c9,5 67,-8 598,-136c210,-51 259,-60 290,-52c31,7 38,13 38,33c0,37 -42,41 -51,6c-7,-28 -24,-36 -24,-11c0,8 -4,15 -10,15c-5,0 -10,-4 -10,-9c0,-5 -24,-3 -52,5c-29,8 -62,16 -73,18c-11,2 -40,9 -65,15c-113,30 -166,42 -182,42c-26,0 -28,11 -13,55c16,45 19,100 6,109c-5,3 -53,-2 -107,-10c-53,-9 -104,-14 -113,-13c-9,2 27,10 79,17c52,7 122,22 155,32c54,17 324,81 463,111c28,6 52,14 52,18c0,5 8,7 18,5c9,-1 11,0 5,2c-23,8 -15,52 10,57c69,16 222,46 228,46c4,0 9,-14 11,-30c4,-28 1,-31 -31,-39c-20,-5 -52,-12 -71,-15c-28,-5 -31,-4 -15,4c18,9 17,10 -5,5c-14,-2 -32,-5 -40,-6c-11,0 -10,-2 3,-7c11,-5 -88,-32 -265,-74c-156,-36 -299,-73 -318,-82c-24,-11 -27,-15 -11,-12c18,4 21,2 12,-7c-33,-33 16,-70 169,-125c131,-47 150,-57 150,-73c0,-17 28,-34 38,-24c3,3 2,17 -4,32c-8,22 -32,35 -169,88c-141,55 -160,65 -163,87c-3,24 2,25 385,117c213,51 422,100 463,108c41,8 79,18 83,23c5,4 23,4 40,-1c52,-15 646,-101 670,-97c29,4 35,38 8,45c-12,3 -21,11 -21,19c0,13 -24,21 -219,77c-47,13 -86,28 -88,34c-2,6 71,29 169,52c95,24 219,54 276,68c75,18 125,24 190,23c48,-1 185,-2 305,-1l217,1l0,79l0,79l40,-5c34,-5 40,-3 40,12c0,13 -3,15 -13,7c-7,-6 -18,-7 -26,-2c-8,4 -21,6 -29,3c-12,-5 -13,15 -8,133c9,208 18,624 14,622c-1,-1 -24,-3 -49,-5zm27,-167c-10,-243 -23,-497 -28,-546c-3,-29 -25,-49 -47,-45c-9,2 -23,4 -31,4c-8,1 -2,9 16,20c29,17 31,23 29,72c0,30 2,101 7,159c4,58 10,175 13,260c4,85 8,169 10,185c2,17 4,33 4,36c1,3 8,6 17,6c15,0 16,-16 10,-151zm-9,-612c8,-21 -13,-42 -28,-27c-13,13 -5,43 11,43c6,0 13,-7 17,-16zm-277,-20c0,-8 -4,-14 -10,-14c-5,0 -10,9 -10,21c0,11 5,17 10,14c6,-3 10,-13 10,-21zm90,-1c0,-17 -8,-25 -32,-32l-33,-9l43,-1c42,-1 42,-1 42,35c0,33 2,36 23,30c12,-3 39,-6 60,-6c36,0 37,-1 37,-37l0,-38l-98,1c-53,0 -100,1 -104,2c-5,1 -11,3 -15,4c-5,1 -13,7 -19,12c-9,8 -7,13 7,18c10,4 19,14 19,22c0,15 20,23 53,22c11,0 17,-8 17,-23zm-124,-40c10,-10 20,-26 20,-35c2,-16 -10,-18 -120,-17l-121,1l50,14c28,8 63,12 79,9c16,-3 27,-2 23,2c-4,3 5,14 21,24c15,10 27,18 28,18c1,1 10,-7 20,-16zm54,-33c0,-5 -4,-10 -10,-10c-5,0 -10,5 -10,10c0,6 5,10 10,10c6,0 10,-4 10,-10zm231,-13c-11,-11 -208,-13 -219,-3c-6,7 15,8 120,6c45,-1 79,3 83,10c3,5 11,7 17,4c6,-4 6,-10 -1,-17zm-567,4c4,-5 -17,-14 -44,-20c-65,-14 -73,-14 -68,2c7,20 102,35 112,18zm-134,-26c0,-19 -7,-26 -27,-31c-16,-3 -44,-10 -63,-15c-49,-13 -50,-12 -50,20c0,26 4,29 53,38c83,16 87,16 87,-12zm-170,-39c0,-15 -21,-26 -51,-26c-11,0 -18,-4 -15,-9c3,-4 -6,-6 -20,-3c-35,6 -25,25 22,39c53,16 64,15 64,-1zm-120,-19c0,-8 -47,-22 -132,-41c-73,-15 -143,-30 -155,-33c-16,-4 -23,-1 -23,10c0,11 17,19 58,27c31,7 93,20 137,30c99,22 115,23 115,7zm-135,-72c-22,-7 -35,-13 -29,-14c7,-1 9,-13 7,-28c-3,-20 -2,-24 5,-14c6,9 12,10 16,2c4,-6 30,-17 59,-26c168,-49 169,-49 150,-57c-12,-6 -7,-7 15,-3c17,2 32,0 32,-5c0,-6 11,-10 24,-10c14,0 28,-5 31,-10c7,-12 0,-11 -216,21l-146,22l8,36c10,44 3,71 -19,72c-22,1 57,27 83,27c11,0 2,-5 -20,-13zm-181,-11c5,-12 16,-14 53,-10c34,4 21,-2 -42,-18c-101,-27 -75,-34 36,-11c40,9 73,14 74,13c1,-2 0,-20 -3,-40c-3,-31 -8,-38 -26,-37c-20,0 -20,1 -1,8c28,12 -70,23 -157,19c-37,-2 -64,0 -62,4c3,4 -2,8 -11,8c-12,0 -15,7 -13,27c2,22 10,28 48,38c65,18 97,17 104,-1zm-2942,-116c7,-7 24,-13 38,-14c32,-1 91,-11 96,-17c3,-2 6,-14 9,-26c2,-11 7,-26 10,-31c8,-13 -18,-12 -85,4c-38,9 -49,15 -35,18c20,6 20,6 0,7c-30,2 -65,29 -65,52c0,22 13,25 32,7zm2245,-35c-6,-6 -135,-37 -322,-77c-66,-15 -130,-29 -142,-31c-18,-4 -23,-1 -23,15c0,12 8,21 23,24c12,3 121,27 242,53c171,37 221,45 223,35c2,-8 1,-16 -1,-19zm-2033,-16c-1,-9 2,-17 7,-17c14,0 10,-27 -5,-33c-31,-12 -72,44 -49,67c14,13 48,1 47,-17zm86,-8c0,-5 -4,-9 -10,-9c-5,0 -10,-11 -10,-25c0,-14 -4,-25 -10,-25c-5,0 -10,14 -10,30c0,17 -4,30 -10,30c-5,0 -10,4 -10,8c0,5 14,7 30,4c17,-2 30,-8 30,-13zm128,-53c2,-16 -1,-33 -6,-38c-10,-10 -42,0 -42,14c0,6 7,8 15,4c8,-3 15,-1 15,4c0,6 -7,10 -15,10c-9,0 -15,9 -15,21c0,15 5,20 23,17c16,-2 23,-11 25,-32zm36,8c11,-28 7,-66 -6,-62c-7,3 -13,21 -13,41c0,39 9,48 19,21zm-144,-20c0,-8 -7,-14 -15,-14c-17,0 -18,2 -9,24c7,18 24,12 24,-10zm387,-110c-3,-3 -12,-4 -19,-1c-8,3 -5,6 6,6c11,1 17,-2 13,-5zm1003,-40c0,-39 -3,-45 -17,-40c-77,24 -160,36 -203,30c-42,-6 -50,-4 -50,10c0,12 10,16 43,17c23,0 76,6 117,13c116,21 110,22 110,-30zm-112,-35c106,-25 116,-28 111,-33c-5,-5 -198,40 -206,48c-10,9 1,8 95,-15z"/>
            <path fill="#666666" id="svg_21"
                  d="m3336,6092c-4,-7 2,-9 14,-7c12,2 33,-1 48,-6c19,-7 24,-7 17,0c-16,16 -72,25 -79,13z"/>
            <path fill="#666666" id="svg_22" d="m2948,6143c7,-3 16,-2 19,1c4,3 -2,6 -13,5c-11,0 -14,-3 -6,-6z"/>
            <path fill="#666666" id="svg_23" d="m292,6023c4,-24 24,-27 24,-3c0,11 -6,20 -14,20c-7,0 -12,-8 -10,-17z"/>
            <path fill="#666666" id="svg_24"
                  d="m500,5990c0,-5 5,-10 10,-10c6,0 10,5 10,10c0,6 -4,10 -10,10c-5,0 -10,-4 -10,-10z"/>
            <path fill="#666666" id="svg_25"
                  d="m2683,6703c-40,-8 -26,-26 15,-19c27,5 33,4 22,-4c-13,-9 -13,-11 0,-21c12,-9 10,-10 -9,-5c-13,2 -30,-1 -37,-9c-8,-7 -18,-15 -23,-17c-18,-6 -22,-52 -6,-73c15,-19 16,-18 13,19c-2,26 2,41 11,44c10,3 11,-2 6,-18c-5,-15 -4,-20 4,-16c6,4 11,16 11,26c0,12 8,20 23,22c16,2 23,11 25,32c3,25 -12,48 -28,44c-3,0 -15,-3 -27,-5z"/>
            <path fill="#666666" id="svg_26"
                  d="m2603,6693c-18,-3 -23,-11 -23,-34c0,-30 20,-47 40,-34c8,5 6,11 -5,19c-14,10 -14,14 5,34c11,12 17,21 13,21c-4,-1 -18,-4 -30,-6z"/>
            <path fill="#666666" id="svg_27"
                  d="m2630,6662c0,-5 7,-9 15,-9c8,0 15,4 15,9c0,4 -7,8 -15,8c-8,0 -15,-4 -15,-8z"/>
            <path fill="#666666" id="svg_28"
                  d="m2478,6606c5,-47 -22,-73 -84,-78c-27,-3 -137,-17 -244,-31c-500,-69 -690,-96 -699,-102c-6,-3 -8,-12 -5,-20c3,-8 -2,-15 -13,-18c-10,-2 -7,-2 7,0c14,2 250,35 525,74c713,98 702,97 680,98c-11,1 -55,4 -99,6c-43,2 -81,6 -84,9c-3,3 2,6 10,6c12,0 17,12 20,45c2,27 -1,45 -7,45c-7,0 -9,-14 -7,-34zm39,-82c-3,-3 -12,-4 -19,-1c-8,3 -5,6 6,6c11,1 17,-2 13,-5zm-90,-15c-50,-12 -927,-129 -958,-128c-49,1 4,9 421,64c234,30 443,59 465,64c22,5 56,9 75,9l35,0l-38,-9z"/>
            <path fill="#666666" id="svg_29"
                  d="m3652,6633c-23,-4 -23,-5 -6,-24c16,-18 16,-19 -9,-19c-15,0 -27,-4 -27,-9c0,-5 14,-9 30,-9c26,1 30,5 30,30c0,18 5,28 14,28c21,0 28,-17 10,-24c-8,-3 -12,-10 -9,-16c4,-6 11,-8 16,-5c5,4 9,0 9,-8c0,-18 -27,-29 -51,-22c-9,3 -20,1 -24,-5c-3,-5 -16,-10 -27,-10c-11,0 -26,-7 -33,-16c-11,-15 -30,-15 -252,4c-133,12 -249,20 -260,18c-10,-2 -66,-10 -125,-17c-59,-7 -106,-14 -104,-16c2,-2 75,-10 162,-18c88,-8 203,-20 257,-27c93,-11 193,-5 297,19c19,4 22,3 14,-6c-6,-7 -60,-21 -120,-32c-102,-18 -115,-18 -204,-4c-52,8 -187,24 -300,35c-185,18 -215,19 -298,7c-51,-8 -95,-10 -98,-5c-3,4 12,9 33,9c21,1 29,3 18,5c-11,3 -94,-7 -185,-20c-127,-19 -149,-25 -94,-23c47,2 75,-2 83,-10c16,-17 28,-16 35,2c4,10 -1,15 -17,16c-12,1 5,5 38,9c46,6 65,5 83,-6c28,-18 28,-39 1,-41c-12,-1 -27,-7 -32,-12c-15,-15 8,-14 148,9c66,11 135,20 153,20c31,0 32,-2 32,-40c0,-39 1,-40 28,-34c39,10 44,14 39,34c-10,40 5,44 120,32c59,-6 146,-9 193,-7c112,6 56,-10 -90,-25c-57,-6 -109,-15 -115,-20c-5,-4 -53,-15 -105,-24c-53,-9 -111,-21 -130,-26c-59,-17 -70,-13 -70,20c0,23 -5,30 -19,30c-17,0 -19,-5 -14,-35c4,-23 2,-35 -6,-35c-6,0 -10,3 -8,8c1,4 -1,9 -6,11c-12,6 -161,-20 -174,-31c-10,-8 -13,-5 -13,11c0,11 -4,21 -9,21c-9,0 2,-56 12,-67c2,-2 51,6 108,17c57,11 105,20 107,20c1,0 2,-8 2,-19c0,-19 -45,-30 -134,-32c-23,0 -50,-5 -61,-10c-15,-7 -8,-8 24,-5c30,3 40,2 30,-5c-10,-6 -7,-9 14,-9c16,0 26,4 22,10c-5,9 52,15 105,12c8,0 17,3 20,7c5,9 765,162 838,169c65,6 50,-14 -22,-31c-36,-8 -229,-48 -430,-88c-226,-46 -359,-77 -350,-82c8,-4 18,-6 22,-3c5,3 206,46 447,96c241,49 441,93 444,97c3,3 -9,3 -26,0c-19,-4 -33,-2 -33,3c0,13 32,28 50,23c9,-3 11,-1 4,4c-14,11 -18,90 -4,98c6,3 10,-4 10,-17c0,-39 13,-47 78,-50c51,-2 62,-5 62,-19c0,-10 -6,-20 -12,-22c-8,-3 -7,-6 4,-6c9,-1 19,3 22,8c3,5 30,12 61,16c30,3 57,10 59,14c3,4 -20,3 -51,-2c-48,-8 -58,-7 -68,7c-7,9 -20,16 -30,16c-24,0 -17,6 17,14c22,5 26,3 22,-9c-5,-11 -2,-14 12,-9c11,4 24,11 31,16c6,5 33,6 59,2c36,-5 46,-4 42,7c-6,18 -47,27 -147,34c-58,3 -79,2 -66,-4c19,-9 18,-10 -5,-10c-18,-1 -21,-4 -11,-10c7,-5 10,-14 7,-20c-9,-14 -36,-15 -36,-1c0,6 -10,10 -21,10c-17,0 -19,3 -10,13c6,8 8,17 4,20c-3,4 -1,7 5,7c7,0 12,-7 12,-15c0,-8 5,-15 11,-15c5,0 8,4 5,9c-4,5 -2,11 4,13c5,2 6,23 2,53c-8,53 -16,59 -70,48zm-327,-118c99,-10 126,-16 120,-25c-6,-10 -187,-6 -235,5c-14,3 -62,8 -108,12c-45,3 -85,10 -89,16c-6,10 181,5 312,-8zm302,-25c-4,-50 -7,-52 -59,-55c-24,-2 -122,-19 -218,-38c-96,-20 -269,-54 -385,-76c-115,-23 -220,-43 -233,-46c-19,-5 -23,-2 -20,12c2,13 22,20 78,30c41,8 220,41 397,74c177,33 325,59 330,58c27,-6 72,33 73,64c0,10 8,17 21,17c17,0 20,-5 16,-40zm204,22c-18,-2 -37,0 -42,5c-5,5 11,6 34,3c41,-4 41,-5 8,-8zm-1126,-51c-3,-6 -32,-11 -63,-10l-57,1l45,9c25,5 51,7 58,4c6,-2 12,1 12,7c0,6 3,9 6,5c3,-3 3,-10 -1,-16zm188,2c2,-5 -2,-19 -9,-33c-13,-25 -14,-25 -14,-2c0,12 -4,22 -10,22c-5,0 -10,5 -10,10c0,12 37,14 43,3zm-283,-163c-14,-4 -36,-8 -50,-8c-23,-1 -23,0 -5,8c11,5 34,8 50,8c29,0 29,0 5,-8z"/>
            <path fill="#666666" id="svg_30"
                  d="m3557,6614c-4,-4 -7,-21 -7,-37c0,-22 -4,-28 -15,-23c-67,25 -652,40 -765,18c-32,-6 -59,-6 -66,-1c-6,5 -14,6 -17,2c-11,-10 -8,-21 6,-20c55,2 68,-29 15,-36c-27,-4 -25,-4 7,-3c23,0 39,6 38,12c-4,21 138,32 372,29c213,-3 351,-10 383,-21c19,-6 63,6 57,16c-3,5 0,19 5,32c10,23 10,23 6,1c-2,-13 0,-23 5,-23c5,0 9,9 9,20c0,11 0,23 1,28c0,10 -25,14 -34,6zm-479,-41c-16,-2 -40,-2 -55,0c-16,2 -3,4 27,4c30,0 43,-2 28,-4z"/>
            <path fill="#666666" id="svg_31"
                  d="m1354,6563c-7,-7 -17,-13 -23,-13c-12,0 -15,-13 -4,-23c3,-4 15,1 25,10c17,15 20,15 28,3c8,-12 10,-11 10,5c0,18 5,20 35,17c22,-3 35,0 35,7c0,16 -89,11 -106,-6z"/>
            <path fill="#666666" id="svg_32"
                  d="m1267,6563c-4,-3 -20,-6 -36,-5c-32,1 -45,-24 -34,-66c4,-19 12,-22 52,-22c25,0 42,4 36,8c-5,4 -12,16 -13,27c-5,24 -10,30 -18,22c-4,-4 -1,-13 6,-22c13,-16 3,-20 -24,-9c-36,14 -3,54 44,54c18,0 29,4 25,10c-7,11 -28,13 -38,3z"/>
            <path fill="#666666" id="svg_33"
                  d="m2515,6560c-4,-6 15,-10 50,-10c35,0 54,4 50,10c-3,6 -26,10 -50,10c-24,0 -47,-4 -50,-10z"/>
            <path fill="#666666" id="svg_34" d="m1405,6539c-10,-15 3,-25 16,-12c7,7 7,13 1,17c-6,3 -14,1 -17,-5z"/>
            <path fill="#666666" id="svg_35"
                  d="m1443,6530c3,-13 0,-20 -10,-20c-8,0 -11,-4 -8,-10c3,-5 -1,-10 -9,-10c-12,0 -16,-10 -16,-37c-1,-31 -3,-35 -11,-20c-12,21 -45,22 -53,1c-11,-29 4,-62 25,-57c25,7 25,23 -1,23c-24,0 -27,25 -4,34c11,4 22,-1 31,-14c22,-31 33,-24 33,21c0,32 4,42 20,46c14,4 20,14 20,34c0,16 -5,29 -11,29c-6,0 -9,-9 -6,-20z"/>
            <path fill="#666666" id="svg_36" d="m2928,6543c7,-3 16,-2 19,1c4,3 -2,6 -13,5c-11,0 -14,-3 -6,-6z"/>
            <path fill="#666666" id="svg_37"
                  d="m1286,6532c-3,-6 1,-15 10,-20c13,-7 14,-17 7,-53c-8,-41 -11,-44 -43,-48c-30,-3 -32,-5 -15,-12c14,-7 9,-8 -20,-4c-28,3 -35,2 -25,-5c11,-7 8,-10 -16,-10c-17,0 -33,-3 -36,-6c-4,-3 -38,-8 -77,-10c-58,-4 -73,-2 -77,11c-10,25 15,45 57,45c53,0 139,20 139,32c0,5 -8,7 -19,3c-10,-3 -75,-11 -145,-19c-120,-12 -177,-26 -107,-26c28,0 33,-3 28,-20c-4,-16 0,-20 19,-20c13,0 24,-4 24,-10c0,-5 7,-10 15,-10c9,0 12,-6 8,-16c-5,-13 -3,-15 13,-6c10,5 45,13 76,16c56,7 57,7 64,-18c7,-28 24,-36 24,-11c0,11 16,15 68,17l67,3l-45,11c-25,5 -46,6 -48,2c-2,-4 -10,-8 -19,-8c-26,0 -9,21 35,40l43,19l8,-22c9,-22 9,-22 16,4c4,15 6,35 5,45c-5,41 -1,46 29,42c21,-3 28,-1 24,9c-3,7 -16,13 -29,13c-13,0 -24,4 -24,8c0,18 -27,45 -34,34z"/>
            <path fill="#666666" id="svg_38" d="m2783,6523c9,-2 23,-2 30,0c6,3 -1,5 -18,5c-16,0 -22,-2 -12,-5z"/>
            <path fill="#666666" id="svg_39"
                  d="m1360,6510c0,-5 9,-10 21,-10c11,0 17,5 14,10c-3,6 -13,10 -21,10c-8,0 -14,-4 -14,-10z"/>
            <path fill="#666666" id="svg_40" d="m2633,6503c9,-2 23,-2 30,0c6,3 -1,5 -18,5c-16,0 -22,-2 -12,-5z"/>
            <path fill="#666666" id="svg_41"
                  d="m3968,6483c-10,-2 -18,-9 -18,-15c0,-5 7,-7 16,-4c9,3 22,6 30,6c8,0 14,5 14,10c0,10 -12,11 -42,3z"/>
            <path fill="#666666" id="svg_42"
                  d="m1815,6394c-240,-34 -391,-52 -430,-49c-43,3 -50,2 -25,-4c33,-7 31,-8 -30,-15c-83,-10 -100,-15 -100,-29c0,-16 -426,-82 -469,-72c-20,4 -31,3 -31,-5c0,-14 3,-15 145,-35c66,-9 130,-21 142,-26c13,-5 23,-4 25,2c3,10 294,14 321,3c10,-3 17,-1 17,5c0,6 -6,11 -14,11c-18,0 -14,29 5,41c16,10 93,10 129,0c15,-4 33,-2 45,5c11,6 31,15 45,19c22,7 23,6 11,-9c-8,-9 -12,-19 -9,-21c4,-4 201,22 225,30c6,2 49,-3 95,-11c78,-14 163,-13 204,3c12,4 15,3 10,-5c-5,-9 6,-11 41,-7c32,3 22,-1 -29,-11l-78,-16l0,-34c0,-40 -1,-40 110,-13c47,12 113,22 148,22c34,0 59,4 55,8c-15,15 -88,11 -193,-10c-58,-12 -106,-21 -107,-21c-2,0 -3,7 -3,15c0,20 2,21 145,45c94,16 123,24 134,40c19,28 29,25 27,-8c-1,-21 3,-28 16,-29c20,-2 24,26 9,55c-12,23 5,63 29,69c11,3 20,10 20,15c0,6 11,7 25,4c18,-5 25,-2 25,9c0,8 -4,15 -10,15c-5,0 -10,13 -10,29c0,17 -5,33 -11,36c-14,9 -27,-4 -13,-13c13,-8 14,-42 2,-42c-4,0 -8,-7 -8,-15c0,-8 -9,-15 -20,-15c-11,0 -20,-7 -20,-15c0,-8 -8,-15 -18,-15c-11,0 -18,-8 -19,-21c-1,-12 -3,-23 -5,-25c-2,-2 -44,-10 -92,-19c-109,-19 -193,-19 -271,0c-33,8 -69,15 -80,15c-27,0 -7,-16 35,-28c50,-15 6,-15 -78,-1c-47,8 -79,8 -105,1c-25,-7 -60,-7 -105,-1c-246,35 -354,47 -393,42c-30,-4 -41,-2 -34,5c15,16 165,27 165,13c0,-7 5,-9 10,-6c6,4 8,11 5,16c-4,5 -3,9 1,9c16,0 800,111 809,115c31,11 -90,-3 -420,-51zm-387,-134c22,-7 17,-8 -28,-9c-39,-1 -51,-4 -40,-11c13,-8 13,-10 -2,-10c-9,0 -18,-8 -20,-17c-3,-15 -14,-18 -63,-18c-33,-1 -79,-4 -102,-9c-29,-5 -43,-4 -43,3c0,6 16,11 35,11c19,0 35,5 35,10c0,6 -10,8 -22,5c-102,-22 -301,-25 -314,-4c-3,5 10,10 28,11c18,0 51,2 73,3c49,3 316,43 322,49c6,6 109,-4 141,-14zm902,-9c-8,-5 -37,-12 -65,-15l-50,-5l55,13c67,17 80,18 60,7z"/>
            <path fill="#666666" id="svg_43" d="m1308,6243c7,-3 16,-2 19,1c4,3 -2,6 -13,5c-11,0 -14,-3 -6,-6z"/>
            <path fill="#666666" id="svg_44"
                  d="m1305,6220c-3,-5 -1,-10 4,-10c6,0 11,5 11,10c0,6 -2,10 -4,10c-3,0 -8,-4 -11,-10z"/>
            <path fill="#666666" id="svg_45"
                  d="m1866,6377l-420,-61l150,-23l149,-22l269,45c149,25 271,46 272,47c6,8 11,77 6,76c-4,-1 -196,-29 -426,-62zm388,18c-3,-8 -9,-14 -12,-13c-4,1 -23,-1 -42,-5c-19,-3 -92,-15 -161,-27c-70,-11 -142,-27 -162,-35c-39,-16 -75,-20 -42,-4c20,9 20,9 0,5c-11,-2 -35,-10 -53,-18c-21,-8 -35,-9 -40,-3c-4,6 -15,10 -24,11c-65,3 -73,5 -58,14c9,4 85,18 170,30c85,12 207,29 270,39c152,24 161,24 154,6z"/>
            <path fill="#666666" id="svg_46"
                  d="m2325,6420c-11,-5 -14,-9 -7,-9c17,-1 15,-38 -3,-45c-27,-10 -17,-36 13,-36c21,0 28,5 29,21c2,20 1,20 -11,3c-11,-15 -12,-11 -6,29c4,26 6,47 6,46c-1,0 -10,-4 -21,-9z"/>
            <path fill="#666666" id="svg_47"
                  d="m3670,6420c0,-5 18,-10 40,-10c22,0 40,5 40,10c0,6 -18,10 -40,10c-22,0 -40,-4 -40,-10z"/>
            <path fill="#666666" id="svg_48" d="m2370,6384c0,-8 10,-12 27,-10c38,4 41,25 4,24c-18,-1 -31,-6 -31,-14z"/>
            <path fill="#666666" id="svg_49"
                  d="m2526,6379c2,-4 -2,-10 -8,-13c-7,-3 -2,-4 11,-3c29,2 40,23 12,23c-11,0 -18,-3 -15,-7z"/>
            <path fill="#666666" id="svg_50" d="m2760,6354c-28,-7 -36,-12 -20,-12c38,0 86,13 75,19c-5,3 -30,0 -55,-7z"/>
            <path fill="#666666" id="svg_51" d="m698,6333c7,-3 16,-2 19,1c4,3 -2,6 -13,5c-11,0 -14,-3 -6,-6z"/>
            <path fill="#666666" id="svg_52"
                  d="m1047,6320c-27,-5 -52,-11 -55,-15c-7,-7 83,3 138,15l35,8l-35,0c-19,0 -57,-4 -83,-8z"/>
            <path fill="#666666" id="svg_53"
                  d="m855,6310c-22,-4 -33,-8 -25,-10c9,-1 4,-5 -10,-10c-36,-11 -52,-11 -45,0c3,6 -3,10 -15,10c-14,0 -24,-9 -31,-30c-13,-35 -24,-36 -98,-14c-34,10 -57,12 -64,6c-7,-6 -32,-15 -57,-21l-45,-10l43,2c36,2 42,0 43,-18c0,-19 1,-18 9,3c8,18 17,22 50,22c50,0 52,-13 3,-27l-38,-10l29,-12c16,-6 149,-35 295,-63c226,-43 289,-51 419,-55c84,-3 152,-1 152,4c0,5 -46,7 -102,5c-91,-3 -135,2 -368,47c-146,27 -289,53 -318,57c-49,6 -74,24 -34,24c10,0 22,3 26,7c7,8 16,10 101,23c34,5 65,16 71,25c8,10 14,12 19,6c7,-12 144,-7 210,8c37,9 35,9 -20,6c-33,-1 -68,-6 -78,-10c-9,-4 -24,-2 -32,5c-8,7 -28,10 -45,8c-17,-3 -27,-1 -23,3c5,5 23,9 40,11c17,1 29,6 27,10c-6,9 -31,8 -89,-2zm-37,-42c-5,-16 -48,-24 -48,-9c0,8 17,16 43,20c5,0 7,-5 5,-11z"/>
            <path fill="#666666" id="svg_54"
                  d="m965,6300c-3,-5 -1,-10 4,-10c6,0 11,5 11,10c0,6 -2,10 -4,10c-3,0 -8,-4 -11,-10z"/>
            <path fill="#666666" id="svg_55" d="m1128,6293c6,-2 18,-2 25,0c6,3 1,5 -13,5c-14,0 -19,-2 -12,-5z"/>
            <path fill="#666666" id="svg_56" d="m415,6220c-17,-7 -15,-9 13,-9c17,-1 32,4 32,9c0,12 -17,12 -45,0z"/>
            <path fill="#666666" id="svg_57"
                  d="m2430,6222c0,-5 24,-12 53,-16c67,-8 104,-6 52,3c-22,4 -55,11 -72,15c-19,4 -33,4 -33,-2z"/>
            <path fill="#666666" id="svg_58" d="m1550,6210c-9,-6 -10,-10 -3,-10c6,0 15,5 18,10c8,12 4,12 -15,0z"/>
            <path fill="#666666" id="svg_59"
                  d="m2598,6213c-10,-2 -18,-9 -18,-15c0,-5 7,-7 16,-4c9,3 20,6 25,6c5,0 9,5 9,10c0,10 -3,11 -32,3z"/>
            <path fill="#666666" id="svg_60"
                  d="m1370,6201c0,-4 11,-6 25,-3c14,2 25,6 25,8c0,2 -11,4 -25,4c-14,0 -25,-4 -25,-9z"/>
            <path fill="#666666" id="svg_61"
                  d="m1442,6203c-6,-2 -10,-9 -6,-14c3,-5 -2,-12 -10,-15c-9,-3 -16,-11 -16,-16c0,-6 6,-5 15,2c8,6 19,9 24,5c6,-3 27,3 48,14c33,17 35,19 13,18c-14,0 -32,2 -40,6c-8,3 -21,3 -28,0zm38,-23c-8,-5 -19,-10 -25,-10c-5,0 -3,5 5,10c8,5 20,10 25,10c6,0 3,-5 -5,-10z"/>
            <path fill="#666666" id="svg_62"
                  d="m360,6191c0,-21 43,-34 306,-86c332,-67 454,-86 474,-74c14,8 -47,14 -94,9c-10,-1 -16,2 -13,7c3,5 -63,21 -146,37c-84,15 -207,39 -274,53c-67,13 -132,25 -145,27c-49,6 -80,18 -66,27c9,6 5,9 -14,9c-16,0 -28,-4 -28,-9z"/>
            <path fill="#666666" id="svg_63" d="m1888,6193c7,-3 16,-2 19,1c4,3 -2,6 -13,5c-11,0 -14,-3 -6,-6z"/>
            <path fill="#666666" id="svg_64" d="m540,6180c-9,-6 -10,-10 -3,-10c6,0 15,5 18,10c8,12 4,12 -15,0z"/>
            <path fill="#666666" id="svg_65"
                  d="m1515,6169c-50,-34 -136,-69 -169,-69c-17,1 -62,7 -101,14c-76,15 -95,13 -49,-5c45,-17 161,-22 212,-9c80,20 142,52 142,72c0,22 1,22 -35,-3z"/>
            <path fill="#666666" id="svg_66"
                  d="m1570,6185c0,-20 38,-38 93,-45c82,-11 97,-18 97,-45c0,-13 3,-26 8,-28c4,-3 5,16 4,43l-4,47l-84,12c-47,7 -91,14 -99,17c-8,4 -15,3 -15,-1z"/>
            <path fill="#666666" id="svg_67"
                  d="m125,6170c-4,-6 7,-10 24,-10c17,0 31,5 31,10c0,6 -11,10 -24,10c-14,0 -28,-4 -31,-10z"/>
            <path fill="#666666" id="svg_68"
                  d="m2428,6171c-1,-4 -86,-25 -188,-46c-101,-20 -189,-38 -195,-40c-30,-7 -74,-32 -68,-40c5,-4 -2,-5 -15,-2c-37,9 -142,-14 -142,-31c0,-10 6,-12 18,-7c9,4 26,9 37,12c11,3 27,7 35,10c8,4 19,5 24,4c21,-5 88,12 76,19c-8,5 -7,9 6,14c11,4 20,2 22,-3c2,-6 8,-11 13,-11c6,0 8,4 4,9c-3,5 21,15 52,21c32,6 133,27 225,46c92,20 175,35 185,34c10,-1 32,-1 48,0c25,2 23,4 -15,11c-61,10 -118,11 -122,0z"/>
            <path fill="#666666" id="svg_69" d="m2608,6173c7,-3 16,-2 19,1c4,3 -2,6 -13,5c-11,0 -14,-3 -6,-6z"/>
            <path fill="#666666" id="svg_70"
                  d="m2765,6160c-3,-5 -1,-10 4,-10c6,0 11,5 11,10c0,6 -2,10 -4,10c-3,0 -8,-4 -11,-10z"/>
            <path fill="#666666" id="svg_71"
                  d="m660,6150c0,-5 5,-10 11,-10c5,0 7,5 4,10c-3,6 -8,10 -11,10c-2,0 -4,-4 -4,-10z"/>
            <path fill="#666666" id="svg_72" d="m1085,6150c-48,-9 -45,-10 23,-13c32,-2 51,2 49,8c-5,13 -22,14 -72,5z"/>
            <path fill="#666666" id="svg_73"
                  d="m1975,6149c-16,-4 -56,-13 -88,-19c-54,-11 -60,-15 -75,-48c-9,-21 -16,-41 -16,-46c-1,-5 -12,-11 -26,-13c-14,-2 -47,-8 -75,-13c-44,-8 -42,-9 24,-4c44,3 80,11 88,20c8,8 24,14 36,14c20,0 20,0 1,15c-19,14 -19,15 4,21c12,3 22,11 22,16c0,5 4,7 9,3c5,-3 16,2 24,10c19,18 28,19 25,3c-3,-12 59,-30 80,-23c24,9 2,25 -34,25c-45,0 -44,17 1,22c19,2 35,0 35,-6c0,-5 3,-7 6,-3c3,3 2,12 -3,20c-6,10 -16,12 -38,6z"/>
            <path fill="#666666" id="svg_74"
                  d="m2730,6149c0,-5 5,-7 10,-4c6,3 10,8 10,11c0,2 -4,4 -10,4c-5,0 -10,-5 -10,-11z"/>
            <path fill="#666666" id="svg_75"
                  d="m166,6141c12,-5 73,-21 135,-34c458,-100 496,-107 518,-99c19,7 6,12 -65,24c-49,9 -177,35 -284,58c-201,43 -217,46 -285,55c-30,4 -35,3 -19,-4z"/>
            <path fill="#666666" id="svg_76" d="m328,6143c7,-3 16,-2 19,1c4,3 -2,6 -13,5c-11,0 -14,-3 -6,-6z"/>
            <path fill="#666666" id="svg_77"
                  d="m2700,6139c0,-5 5,-7 10,-4c6,3 10,8 10,11c0,2 -4,4 -10,4c-5,0 -10,-5 -10,-11z"/>
            <path fill="#666666" id="svg_78" d="m1536,6125c-16,-12 -17,-15 -4,-15c9,0 18,7 22,15c7,18 6,18 -18,0z"/>
            <path fill="#666666" id="svg_79"
                  d="m2030,6119c0,-5 5,-7 10,-4c6,3 10,8 10,11c0,2 -4,4 -10,4c-5,0 -10,-5 -10,-11z"/>
            <path fill="#666666" id="svg_80"
                  d="m1490,6090c-12,-8 -10,-10 10,-9c14,0 34,4 45,9c17,7 16,9 -10,9c-16,0 -37,-4 -45,-9z"/>
            <path fill="#666666" id="svg_81"
                  d="m1565,6069c-4,-12 -16,-19 -31,-19c-13,0 -24,-5 -24,-10c0,-10 83,-6 119,6c8,2 40,-1 73,-7c54,-11 80,-8 65,7c-3,4 -49,14 -101,24c-93,17 -96,17 -101,-1z"/>
            <path fill="#666666" id="svg_82" d="m2608,6083c7,-3 16,-2 19,1c4,3 -2,6 -13,5c-11,0 -14,-3 -6,-6z"/>
            <path fill="#666666" id="svg_83" d="m2558,6073c6,-2 18,-2 25,0c6,3 1,5 -13,5c-14,0 -19,-2 -12,-5z"/>
            <path fill="#666666" id="svg_84" d="m1928,6063c6,-2 18,-2 25,0c6,3 1,5 -13,5c-14,0 -19,-2 -12,-5z"/>
            <path fill="#666666" id="svg_85" d="m2438,6043c7,-3 16,-2 19,1c4,3 -2,6 -13,5c-11,0 -14,-3 -6,-6z"/>
            <path fill="#666666" id="svg_86" d="m1370,6030c-29,-6 -23,-8 33,-9c39,0 67,3 67,9c0,11 -47,11 -100,0z"/>
            <path fill="#666666" id="svg_87" d="m1197,6023c18,-2 50,-2 70,0c21,2 7,4 -32,4c-38,0 -55,-2 -38,-4z"/>
            <path fill="#666666" id="svg_88"
                  d="m835,5999c-20,-8 -20,-8 0,-8c11,-1 45,-4 75,-7c37,-5 52,-3 45,3c-13,14 -95,22 -120,12z"/>
            <path fill="#666666" id="svg_89"
                  d="m1498,5993c-33,-2 -58,-9 -58,-15c0,-7 13,-8 38,-4c20,3 56,6 80,6c26,0 41,4 37,10c-3,6 -14,9 -23,8c-9,-1 -43,-3 -74,-5z"/>
            <path fill="#666666" id="svg_90" d="m1004,5979c-3,-5 30,-9 72,-9c43,0 75,2 73,4c-10,8 -140,13 -145,5z"/>
            <path fill="#666666" id="svg_91" d="m1215,5970c-7,-12 37,-12 110,0c49,7 48,7 -27,9c-42,0 -80,-3 -83,-9z"/>
            <path fill="#666666" id="svg_92"
                  d="m1860,5850c0,-5 5,-10 10,-10c6,0 10,5 10,10c0,6 -4,10 -10,10c-5,0 -10,-4 -10,-10z"/>
        </g>
    </g>
</svg>